<svg width="24" height="24" viewBox="0 0 24 24" fill="none" xmlns="http://www.w3.org/2000/svg">
<path d="M17.6569 16.2427L13.4143 12L17.6569 7.7574C17.8444 7.56986 17.9498 7.31551 17.9498 7.05029C17.9498 6.78508 17.8444 6.53072 17.6569 6.34319C17.4694 6.15565 17.215 6.05029 16.9498 6.05029C16.6846 6.05029 16.4302 6.15565 16.2427 6.34319L12 10.5858L7.7574 6.34319C7.56986 6.15565 7.31551 6.05029 7.05029 6.05029C6.78508 6.05029 6.53072 6.15565 6.34319 6.34319C6.15565 6.53072 6.05029 6.78508 6.05029 7.05029C6.05029 7.31551 6.15565 7.56986 6.34319 7.7574L10.5858 12L6.34319 16.2427C6.15565 16.4302 6.05029 16.6846 6.05029 16.9498C6.05029 17.215 6.15565 17.4694 6.34319 17.6569C6.53072 17.8444 6.78508 17.9498 7.05029 17.9498C7.31551 17.9498 7.56986 17.8444 7.7574 17.6569L12 13.4143L16.2427 17.6569C16.4302 17.8444 16.6846 17.9498 16.9498 17.9498C17.215 17.9498 17.4694 17.8444 17.6569 17.6569C17.8444 17.4694 17.9498 17.215 17.9498 16.9498C17.9498 16.6846 17.8444 16.4302 17.6569 16.2427Z"/>
</svg>
