<svg width="24" height="24" viewBox="0 0 24 24" fill="none" xmlns="http://www.w3.org/2000/svg">
<path fill-rule="evenodd" clip-rule="evenodd" d="M15.8176 5.06051H19.4538C19.6949 5.06051 19.9261 5.15628 20.0966 5.32676C20.267 5.49724 20.3628 5.72846 20.3628 5.96955C20.3628 6.21065 20.267 6.44187 20.0966 6.61234C19.9261 6.78282 19.6949 6.8786 19.4538 6.8786H4.90904C4.66795 6.8786 4.43673 6.78282 4.26625 6.61234C4.09577 6.44187 4 6.21065 4 5.96955C4 5.72846 4.09577 5.49724 4.26625 5.32676C4.43673 5.15628 4.66795 5.06051 4.90904 5.06051H8.54522V3.24242C8.54522 3.00133 8.641 2.77011 8.81148 2.59963C8.98196 2.42915 9.21317 2.33337 9.45427 2.33337H14.9085C15.1496 2.33337 15.3808 2.42915 15.5513 2.59963C15.7218 2.77011 15.8176 3.00133 15.8176 3.24242V5.06051ZM10.3633 4.15146V5.06051H13.9995V4.15146H10.3633Z"/>
<path d="M17.9019 8.0539C18.0724 7.88342 18.3036 7.78764 18.5447 7.78764C18.7858 7.78764 19.017 7.88342 19.1875 8.0539C19.358 8.22437 19.4538 8.45559 19.4538 8.69669V18.8698C19.4278 19.8118 19.0296 20.7051 18.3464 21.3541C17.6631 22.0031 16.7506 22.3548 15.8085 22.3324H8.55431C7.61224 22.3548 6.69966 22.0031 6.01642 21.3541C5.33319 20.7051 4.93499 19.8118 4.90904 18.8698V8.69669C4.90904 8.45559 5.00482 8.22437 5.1753 8.0539C5.34578 7.88342 5.57699 7.78764 5.81809 7.78764C6.05918 7.78764 6.2904 7.88342 6.46088 8.0539C6.63136 8.22437 6.72713 8.45559 6.72713 8.69669V18.8698C6.75321 19.3295 6.95987 19.7603 7.30211 20.0683C7.64434 20.3763 8.09442 20.5366 8.55431 20.5143H15.8085C16.2684 20.5366 16.7185 20.3763 17.0607 20.0683C17.4029 19.7603 17.6096 19.3295 17.6357 18.8698V8.69669C17.6357 8.45559 17.7314 8.22437 17.9019 8.0539Z"/>
<path d="M11.2724 16.8781V10.5148C11.2724 10.2737 11.1766 10.0425 11.0061 9.87199C10.8356 9.70151 10.6044 9.60573 10.3633 9.60573C10.1222 9.60573 9.891 9.70151 9.72052 9.87199C9.55004 10.0425 9.45427 10.2737 9.45427 10.5148V16.8781C9.45427 17.1192 9.55004 17.3504 9.72052 17.5209C9.891 17.6914 10.1222 17.7871 10.3633 17.7871C10.6044 17.7871 10.8356 17.6914 11.0061 17.5209C11.1766 17.3504 11.2724 17.1192 11.2724 16.8781Z"/>
<path d="M14.9085 10.5148V16.8781C14.9085 17.1192 14.8128 17.3504 14.6423 17.5209C14.4718 17.6914 14.2406 17.7871 13.9995 17.7871C13.7584 17.7871 13.5272 17.6914 13.3567 17.5209C13.1862 17.3504 13.0904 17.1192 13.0904 16.8781V10.5148C13.0904 10.2737 13.1862 10.0425 13.3567 9.87199C13.5272 9.70151 13.7584 9.60573 13.9995 9.60573C14.2406 9.60573 14.4718 9.70151 14.6423 9.87199C14.8128 10.0425 14.9085 10.2737 14.9085 10.5148Z"/>
</svg>
