<svg width="24" height="24" viewBox="0 0 24 24" fill="none" xmlns="http://www.w3.org/2000/svg">
<path d="M12 10.5C11.5858 10.5 11.25 10.8358 11.25 11.25V13.25H9.25C8.83579 13.25 8.5 13.5858 8.5 14C8.5 14.4142 8.83579 14.75 9.25 14.75H11.25V16.75C11.25 17.1642 11.5858 17.5 12 17.5C12.4142 17.5 12.75 17.1642 12.75 16.75V14.75H14.75C15.1642 14.75 15.5 14.4142 15.5 14C15.5 13.5858 15.1642 13.25 14.75 13.25H12.75V11.25C12.75 10.8358 12.4142 10.5 12 10.5Z"/>
<path fill-rule="evenodd" clip-rule="evenodd" d="M8 7V5.5C8 4.39543 8.89543 3.5 10 3.5H14C15.1046 3.5 16 4.39543 16 5.5V7H20C21.1046 7 22 7.89543 22 9V19C22 20.1046 21.1046 21 20 21H4C2.89543 21 2 20.1046 2 19V9C2 7.89543 2.89543 7 4 7H8ZM10 5H14C14.2761 5 14.5 5.22386 14.5 5.5V7H9.5V5.5C9.5 5.22386 9.72386 5 10 5ZM4 8.5C3.72386 8.5 3.5 8.72386 3.5 9V19C3.5 19.2761 3.72386 19.5 4 19.5H20C20.2761 19.5 20.5 19.2761 20.5 19V9C20.5 8.72386 20.2761 8.5 20 8.5H4Z"/>
</svg>
