<svg width="24" height="24" viewBox="0 0 24 24" fill="none" xmlns="http://www.w3.org/2000/svg">
<path d="M8.9909 8.68665L8.98907 8.68755L8.98634 8.68936L8.9909 8.68665ZM18.0759 8.51757C18.0125 8.45688 17.942 8.40378 17.866 8.35934C17.7585 8.29661 17.6391 8.2564 17.5152 8.2412C17.3913 8.226 17.2656 8.23612 17.1459 8.27095C17.0261 8.30578 16.9148 8.36457 16.8189 8.44369C16.723 8.52281 16.6445 8.62058 16.5882 8.73095C16.2739 9.34479 15.8403 9.8911 15.3123 10.3385C15.3932 9.88785 15.4342 9.43101 15.4346 8.97326C15.4363 7.581 15.0656 6.21315 14.3602 5.00897C13.6548 3.80479 12.6398 2.80729 11.4187 2.11803C11.2841 2.04229 11.1323 2.00169 10.9776 2.00005C10.8228 1.99841 10.6702 2.03578 10.534 2.10865C10.3978 2.18153 10.2826 2.2875 10.1991 2.41662C10.1157 2.54574 10.0668 2.69376 10.0569 2.84677C10.0058 3.70399 9.7796 4.54201 9.39194 5.31007C9.00428 6.07813 8.46325 6.76023 7.80165 7.31506L7.59173 7.48413C6.89954 7.94547 6.28688 8.51422 5.77727 9.16855C4.9853 10.1569 4.43668 11.3144 4.17495 12.5494C3.91321 13.7843 3.94554 15.0627 4.26939 16.2831C4.59323 17.5035 5.19968 18.6324 6.04063 19.5802C6.88158 20.528 7.93389 21.2686 9.11411 21.7434C9.25268 21.7993 9.40299 21.8205 9.5518 21.8053C9.70062 21.7901 9.84338 21.7389 9.96752 21.6562C10.0917 21.5735 10.1934 21.4619 10.2637 21.3311C10.3341 21.2003 10.3709 21.0544 10.3709 20.9062C10.3701 20.8104 10.3548 20.7153 10.3253 20.6241C10.1211 19.8637 10.0622 19.0722 10.1519 18.2905C11.0157 19.904 12.4022 21.1829 14.0883 21.9215C14.2941 22.0126 14.5266 22.0249 14.7409 21.9559C16.073 21.5299 17.273 20.7736 18.2269 19.7588C19.1808 18.744 19.857 17.5045 20.1912 16.158C20.5254 14.8114 20.5064 13.4026 20.1362 12.0654C19.766 10.7281 19.0568 9.50684 18.0759 8.51757ZM14.5118 20.1187C13.7162 19.7193 13.0144 19.1585 12.4519 18.4728C11.8894 17.7871 11.4789 16.9918 11.2471 16.1386C11.1762 15.8513 11.1214 15.5603 11.0828 15.267C11.0568 15.0802 10.9726 14.9062 10.8418 14.7692C10.7111 14.6322 10.5404 14.5391 10.3536 14.503C10.2961 14.492 10.2377 14.4865 10.1792 14.4867C10.0189 14.4866 9.8613 14.5283 9.72238 14.6076C9.58346 14.687 9.46811 14.8012 9.38793 14.9388C8.63079 16.2329 8.25013 17.7093 8.28812 19.2046C7.62199 18.6916 7.06526 18.0528 6.6502 17.3252C6.23513 16.5975 5.97 15.7955 5.87016 14.9656C5.77032 14.1357 5.83776 13.2944 6.06858 12.4905C6.29939 11.6866 6.68899 10.9361 7.21478 10.2825C7.61401 9.76876 8.09562 9.32343 8.64042 8.96422C8.66426 8.94907 8.68712 8.93246 8.70887 8.91449C8.70887 8.91449 8.97903 8.69297 8.98816 8.68845C10.2889 7.599 11.2142 6.13467 11.635 4.49955C12.6293 5.41036 13.2922 6.62091 13.5208 7.94323C13.7494 9.26554 13.5309 10.6256 12.8991 11.8123C12.8155 11.9707 12.7811 12.15 12.8004 12.3278C12.8197 12.5055 12.8917 12.6735 13.0073 12.8107C13.1229 12.9479 13.277 13.0481 13.4501 13.0986C13.6232 13.1491 13.8075 13.1476 13.9797 13.0944C15.3777 12.66 16.6079 11.8119 17.5046 10.664C18.0437 11.4526 18.3962 12.3516 18.5358 13.294C18.6754 14.2364 18.5985 15.1978 18.3108 16.1066C18.0232 17.0154 17.5321 17.8482 16.8744 18.5429C16.2166 19.2375 15.409 19.7762 14.5118 20.1187Z"/>
</svg>
