<svg width="24" height="24" viewBox="0 0 24 24" fill="none" xmlns="http://www.w3.org/2000/svg">
<path d="M20.55 15.125C20.3464 11.7007 18.3836 8.64357 15.4886 7.24214L15.5636 6.57214C15.6043 6.175 15.4736 5.77643 15.205 5.47786C14.9307 5.17429 14.5364 5 14.1236 5H9.87643C9.46357 5 9.07 5.17429 8.795 5.47857C8.52643 5.77643 8.395 6.17571 8.43714 6.57929L8.51143 7.24286C5.61643 8.64357 3.65429 11.7007 3.45 15.125C2.60929 15.415 2 16.205 2 17.1429C2 18.3243 2.96143 19.2857 4.14286 19.2857H19.8571C21.0386 19.2857 22 18.3243 22 17.1429C22 16.205 21.3907 15.415 20.55 15.125ZM8.68143 8.77L9.14714 12.9364C9.19071 13.3286 9.54429 13.6129 9.93571 13.5671C10.3279 13.5236 10.61 13.17 10.5664 12.7786L9.87643 6.42857L14.1436 6.42071L13.4329 12.7779C13.3886 13.17 13.6707 13.5229 14.0636 13.5664C14.4521 13.6121 14.8086 13.33 14.8521 12.9357L15.3179 8.76929C17.4471 10.0029 18.8907 12.355 19.1121 14.9993H4.88714C5.10929 12.3557 6.55286 10.0036 8.68143 8.77ZM19.8571 17.8571H4.14286C3.74929 17.8571 3.42857 17.5364 3.42857 17.1429C3.42857 16.7493 3.74929 16.4286 4.14286 16.4286H19.8571C20.2507 16.4286 20.5714 16.7493 20.5714 17.1429C20.5714 17.5364 20.2507 17.8571 19.8571 17.8571Z"/>
</svg>
