<svg width="24" height="24" viewBox="0 0 24 24" fill="none" xmlns="http://www.w3.org/2000/svg">
<path d="M4.75 2.75H19.25V6.5V14C19.25 15.7284 18.2653 17.5457 16.7931 18.959C15.3167 20.3763 13.493 21.25 12 21.25C10.507 21.25 8.68334 20.3763 7.2069 18.959C5.73474 17.5457 4.75 15.7284 4.75 14V6.5V2.75Z" stroke="#1A1A1A" stroke-width="1.5"/>
<path d="M12 9.78685L12.8538 10.8244L13.0231 11.03L13.2882 11.0043L14.6256 10.8744L14.4957 12.2118L14.47 12.4769L14.6756 12.6462L15.7131 13.5L14.6756 14.3538L14.47 14.5231L14.4957 14.7882L14.6256 16.1256L13.2882 15.9957L13.0231 15.97L12.8538 16.1756L12 17.2131L11.1462 16.1756L10.9769 15.97L10.7118 15.9957L9.37441 16.1256L9.50429 14.7882L9.53004 14.5231L9.32435 14.3538L8.28685 13.5L9.32435 12.6462L9.53004 12.4769L9.50429 12.2118L9.37441 10.8744L10.7118 11.0043L10.9769 11.03L11.1462 10.8244L12 9.78685Z" stroke="#1A1A1A"/>
</svg>
