<svg width="24" height="24" viewBox="0 0 24 24" fill="none" xmlns="http://www.w3.org/2000/svg">
<path fill-rule="evenodd" clip-rule="evenodd" d="M9.35293 5.28637V5.17867C9.35293 4.52777 9.88008 4 10.5311 4H13.4689C14.1196 4 14.6471 4.5282 14.6471 5.17867V5.28637C18.2805 6.42609 20.8236 9.8123 20.8236 13.7059V14.2941C21.4736 14.2946 22 14.8219 22 15.4723V18.41C22 19.0601 21.4711 19.5882 20.8226 19.5882H3.17742C2.52691 19.5882 2 19.0608 2 18.41V15.4723C2 14.8225 2.52832 14.2946 3.17648 14.2941V13.7059C3.17648 9.81227 5.71953 6.42609 9.35293 5.28637ZM3.17742 15.4706C3.1782 15.4706 3.17645 18.41 3.17645 18.41C3.17645 18.4113 20.8225 18.4118 20.8225 18.4118C20.8218 18.4118 20.8235 15.4723 20.8235 15.4723C20.8235 15.471 14.7122 15.4706 14.7122 15.4706C14.1239 16.3743 13.1127 16.9412 12 16.9412C10.8874 16.9412 9.87605 16.3743 9.28777 15.4706H3.17742ZM15.2353 13.7059C15.2353 13.905 15.2173 14.1017 15.1819 14.2941H19.6471V13.7059C19.6471 10.4588 17.606 7.61852 14.6471 6.52887V11.8449C15.0214 12.3772 15.2353 13.0223 15.2353 13.7059ZM9.35293 11.8449V6.52887C6.39402 7.61852 4.35293 10.4588 4.35293 13.7059V14.2941H8.81813C8.78277 14.1017 8.76469 13.905 8.76469 13.7059C8.76469 13.0223 8.97863 12.3772 9.35293 11.8449ZM13.4706 5.17863C13.4706 5.17754 10.5311 5.17645 10.5311 5.17645C10.5302 5.17645 10.5294 10.8233 10.5294 10.8233C10.9766 10.595 11.4782 10.4706 12 10.4706C12.5218 10.4706 13.0234 10.5951 13.4706 10.8234V5.17863ZM9.94117 13.7059C9.94117 14.8431 10.8628 15.7647 12 15.7647C13.1373 15.7647 14.0588 14.843 14.0588 13.7059C14.0588 12.5686 13.1372 11.647 12 11.647C10.8627 11.647 9.94117 12.5687 9.94117 13.7059Z"/>
</svg>
