<svg width="24" height="24" viewBox="0 0 24 24" fill="none" xmlns="http://www.w3.org/2000/svg">
<path d="M10.0494 18.0903C11.837 18.0904 13.5735 17.4939 14.9838 16.3955L20.3045 21.7161C20.7019 22.1 21.3353 22.089 21.7192 21.6915C22.0936 21.3038 22.0936 20.6891 21.7192 20.3014L16.3985 14.9808C19.1243 11.472 18.4895 6.41791 14.9807 3.69215C11.472 0.966393 6.41791 1.60113 3.69215 5.10992C0.966393 8.6187 1.60113 13.6728 5.10992 16.3986C6.52252 17.4959 8.26058 18.0912 10.0494 18.0903ZM5.77429 5.77122C8.13538 3.41008 11.9635 3.41004 14.3246 5.77113C16.6857 8.13222 16.6858 11.9603 14.3247 14.3214C11.9636 16.6826 8.13551 16.6826 5.77438 14.3215C5.77434 14.3215 5.77434 14.3215 5.77429 14.3214C3.4132 11.9776 3.39929 8.16342 5.74318 5.80233C5.75354 5.79193 5.76389 5.78157 5.77429 5.77122Z"/>
</svg>
