<svg width="24" height="24" viewBox="0 0 24 24" fill="none" xmlns="http://www.w3.org/2000/svg">
<path d="M2.21702 15.5482C1.93382 15.8231 1.92684 16.2751 2.20167 16.5583L4.94859 19.3896L4.9492 19.39C5.07903 19.5244 5.25943 19.6093 5.46129 19.6093C5.66314 19.6093 5.84354 19.5244 5.97337 19.39L5.97398 19.3896L8.72159 16.5583C8.99643 16.2751 8.98945 15.8231 8.70625 15.5482C8.42305 15.2734 7.97104 15.2804 7.69621 15.5636L6.17557 17.1307V5.71428C6.17557 5.31947 5.85609 5 5.46129 5C5.06648 5 4.747 5.31947 4.747 5.71428V17.1305L3.22706 15.5636C2.95223 15.2804 2.50022 15.2734 2.21702 15.5482Z"/>
<path d="M19.7714 10.1067C19.7714 9.71189 19.4519 9.39242 19.0571 9.39242H11.306C10.9112 9.39242 10.5917 9.71189 10.5917 10.1067C10.5917 10.5015 10.9112 10.821 11.306 10.821H19.0571C19.4519 10.821 19.7714 10.5015 19.7714 10.1067Z"/>
<path d="M17.5427 14.4998C17.5427 14.105 17.2232 13.7855 16.8284 13.7855H11.306C10.9112 13.7855 10.5917 14.105 10.5917 14.4998C10.5917 14.8946 10.9112 15.2141 11.306 15.2141H16.8284C17.2232 15.2141 17.5427 14.8946 17.5427 14.4998Z"/>
<path d="M11.306 18.1807C10.9112 18.1807 10.5917 18.5002 10.5917 18.895C10.5917 19.2898 10.9112 19.6093 11.306 19.6093H14.5998C14.9946 19.6093 15.3141 19.2898 15.3141 18.895C15.3141 18.5002 14.9946 18.1807 14.5998 18.1807H11.306Z"/>
<path d="M21.2857 5H11.306C10.9112 5 10.5917 5.31947 10.5917 5.71428C10.5917 6.10909 10.9112 6.42857 11.306 6.42857H21.2857C21.6805 6.42857 22 6.10909 22 5.71428C22 5.31947 21.6805 5 21.2857 5Z"/>
</svg>
