<svg width="24" height="24" viewBox="0 0 24 24" fill="none" xmlns="http://www.w3.org/2000/svg">
<path d="M2.21702 9.06109C2.35583 9.19571 2.5351 9.26268 2.71437 9.26268C2.90061 9.26268 3.08685 9.19013 3.22706 9.04574L4.74705 7.47924L4.74735 18.895C4.74735 19.2898 5.06717 19.6093 5.46163 19.6093C5.85609 19.6093 6.17592 19.2898 6.17592 18.895L6.17561 7.47924L7.69586 9.04574C7.97104 9.32894 8.42305 9.33592 8.7059 9.06109C8.9891 8.78626 8.99573 8.33425 8.72125 8.05105L5.97398 5.21973L5.97315 5.21916C5.84328 5.08484 5.66292 5 5.46129 5C5.25965 5 5.07929 5.08484 4.94942 5.21916L4.94859 5.21973L2.20167 8.05105C1.92684 8.33425 1.93382 8.78626 2.21702 9.06109Z"/>
<path d="M19.7714 10.1067C19.7714 9.71189 19.4515 9.39242 19.0571 9.39242H11.306C10.9115 9.39242 10.5917 9.71189 10.5917 10.1067C10.5917 10.5015 10.9115 10.821 11.306 10.821H19.0571C19.4515 10.821 19.7714 10.5015 19.7714 10.1067Z"/>
<path d="M17.5427 14.4998C17.5427 14.105 17.2229 13.7855 16.8284 13.7855H11.306C10.9115 13.7855 10.5917 14.105 10.5917 14.4998C10.5917 14.8946 10.9115 15.2141 11.306 15.2141H16.8284C17.2229 15.2141 17.5427 14.8946 17.5427 14.4998Z"/>
<path d="M11.306 18.1807C10.9115 18.1807 10.5917 18.5002 10.5917 18.895C10.5917 19.2898 10.9115 19.6093 11.306 19.6093H14.6001C14.9946 19.6093 15.3144 19.2898 15.3144 18.895C15.3144 18.5002 14.9946 18.1807 14.6001 18.1807H11.306Z"/>
<path d="M21.2857 5H11.306C10.9115 5 10.5917 5.31947 10.5917 5.71428C10.5917 6.10909 10.9115 6.42857 11.306 6.42857H21.2857C21.6802 6.42857 22 6.10909 22 5.71428C22 5.31947 21.6802 5 21.2857 5Z"/>
</svg>
